<svg width="35" height="35" viewBox="0 0 35 35" fill="none" xmlns="http://www.w3.org/2000/svg">
<path d="M2.51952 2.65133C2.373 2.06531 1.77916 1.70902 1.19314 1.85554C0.607115 2.00206 0.250828 2.5959 0.397348 3.18192L2.51952 2.65133ZM8.40833 24.4786L9.06577 23.6045L8.40833 24.4786ZM4.40615 14.9504L5.46978 14.6955L4.40615 14.9504ZM8.14597 24.2717L8.84277 23.4286L8.14597 24.2717ZM32.1114 15.6662L33.175 15.9211L32.1114 15.6662ZM29.006 23.8546L28.2397 23.0741L29.006 23.8546ZM27.7673 24.8315L28.3477 25.7585L27.7673 24.8315ZM31.999 9.85242L32.7497 9.05696L31.999 9.85242ZM32.5265 10.5213L33.475 9.9767L32.5265 10.5213ZM20.4169 14.9479C19.8129 14.9479 19.3232 15.4376 19.3232 16.0416C19.3232 16.6457 19.8129 17.1354 20.4169 17.1354V14.9479ZM24.7919 19.3229C24.1879 19.3229 23.6982 19.8126 23.6982 20.4166C23.6982 21.0207 24.1879 21.5104 24.7919 21.5104V19.3229ZM2.99367 10.1507H26.8991V7.96323H2.99367V10.1507ZM19.0806 24.8492H18.3446V27.0367H19.0806V24.8492ZM5.46978 14.6955L4.0573 8.80206L1.93004 9.31189L3.34252 15.2053L5.46978 14.6955ZM4.05476 8.79168L2.51952 2.65133L0.397348 3.18192L1.93259 9.32227L4.05476 8.79168ZM18.3446 24.8492C15.6556 24.8492 13.7327 24.8475 12.2355 24.6735C10.7659 24.5027 9.82636 24.1766 9.06577 23.6045L7.75088 25.3527C8.93718 26.245 10.3026 26.6511 11.9829 26.8463C13.6355 27.0384 15.7073 27.0367 18.3446 27.0367V24.8492ZM3.34252 15.2053C3.95719 17.77 4.43838 19.7851 5.01033 21.3474C5.59186 22.9359 6.305 24.1691 7.44917 25.1148L8.84277 23.4286C8.10919 22.8223 7.5731 21.9847 7.06451 20.5954C6.54634 19.18 6.09649 17.3104 5.46978 14.6955L3.34252 15.2053ZM9.06577 23.6045C8.9901 23.5476 8.91575 23.489 8.84277 23.4286L7.44917 25.1148C7.54791 25.1964 7.64851 25.2757 7.75088 25.3527L9.06577 23.6045ZM19.0806 27.0367C21.3622 27.0367 23.1547 27.038 24.5962 26.8922C26.0598 26.7442 27.264 26.4371 28.3477 25.7585L27.1869 23.9045C26.4955 24.3374 25.6602 24.586 24.3761 24.7158C23.07 24.8479 21.4067 24.8492 19.0806 24.8492V27.0367ZM28.2397 23.0741C27.9198 23.3882 27.5668 23.6666 27.1869 23.9045L28.3477 25.7585C28.8618 25.4367 29.3394 25.06 29.7722 24.6352L28.2397 23.0741ZM26.8991 10.1507C28.3465 10.1507 29.3316 10.1527 30.0647 10.2421C30.7797 10.3294 31.0729 10.4824 31.2483 10.6479L32.7497 9.05696C32.0822 8.42703 31.2444 8.18232 30.3297 8.07071C29.433 7.9613 28.2897 7.96323 26.8991 7.96323V10.1507ZM33.175 15.9211C33.4991 14.5688 33.7675 13.4574 33.8701 12.5599C33.9747 11.6444 33.932 10.7726 33.475 9.9767L31.578 11.0659C31.6981 11.2751 31.7785 11.5958 31.6967 12.3115C31.6129 13.0452 31.3851 14.0037 31.0478 15.4112L33.175 15.9211ZM31.2483 10.6479C31.378 10.7703 31.4891 10.9112 31.578 11.0659L33.475 9.9767C33.2795 9.63627 33.0352 9.32639 32.7497 9.05696L31.2483 10.6479ZM30.6253 19.3229H24.7919V21.5104H30.6253V19.3229ZM32.0214 14.9479L20.4169 14.9479V17.1354L32.0214 17.1354V14.9479ZM31.0478 15.4112C31.0174 15.5382 30.9874 15.6632 30.9578 15.7865L33.085 16.2968C33.1146 16.1733 33.1446 16.048 33.175 15.9211L31.0478 15.4112ZM30.9578 15.7865C30.5238 17.5959 30.1861 18.9777 29.8327 20.0837L31.9164 20.7495C32.2992 19.5514 32.6559 18.0855 33.085 16.2968L30.9578 15.7865ZM29.8327 20.0837C29.3577 21.5702 28.8903 22.4355 28.2397 23.0741L29.7722 24.6352C30.7913 23.6347 31.3959 22.3785 31.9164 20.7495L29.8327 20.0837ZM30.6253 21.5104H30.8746V19.3229H30.6253V21.5104Z" fill="white"/>
<path d="M15.2744 30.5483C15.2744 31.3961 14.5871 32.0834 13.7393 32.0834C12.8915 32.0834 12.2042 31.3961 12.2042 30.5483C12.2042 29.7005 12.8915 29.0132 13.7393 29.0132C14.5871 29.0132 15.2744 29.7005 15.2744 30.5483Z" fill="white"/>
<path d="M24.4849 30.5483C24.4849 31.3961 23.7976 32.0834 22.9498 32.0834C22.102 32.0834 21.4148 31.3961 21.4148 30.5483C21.4148 29.7005 22.102 29.0132 22.9498 29.0132C23.7976 29.0132 24.4849 29.7005 24.4849 30.5483Z" fill="white"/>
</svg>
