<svg width="17" height="17" viewBox="0 0 17 17" fill="none" xmlns="http://www.w3.org/2000/svg">
<g clip-path="url(#clip0_41_501)">
<path fill-rule="evenodd" clip-rule="evenodd" d="M17 8.5C17 13.1944 13.1944 17 8.5 17C3.80558 17 0 13.1944 0 8.5C0 3.80558 3.80558 0 8.5 0C13.1944 0 17 3.80558 17 8.5ZM8.8046 6.27505C7.97785 6.61893 6.32551 7.33066 3.84759 8.41025C3.44521 8.57026 3.23443 8.7268 3.21524 8.87986C3.18281 9.13854 3.50675 9.2404 3.94788 9.37911C4.00788 9.39798 4.07005 9.41753 4.13379 9.43824C4.56778 9.57932 5.15158 9.74436 5.45508 9.75092C5.73038 9.75687 6.03764 9.64337 6.37687 9.41043C8.69207 7.84761 9.88719 7.05768 9.96222 7.04065C10.0152 7.02863 10.0885 7.01353 10.1382 7.0577C10.1879 7.10188 10.183 7.18554 10.1778 7.20798C10.1457 7.34479 8.87408 8.52697 8.21604 9.13874C8.0109 9.32946 7.86538 9.46474 7.83564 9.49564C7.769 9.56485 7.70109 9.63032 7.63582 9.69324C7.23263 10.0819 6.93027 10.3734 7.65256 10.8494C7.99966 11.0781 8.27742 11.2673 8.55451 11.456C8.85713 11.662 9.15896 11.8676 9.54948 12.1236C9.64897 12.1888 9.74399 12.2565 9.83654 12.3225C10.1887 12.5736 10.5051 12.7991 10.896 12.7632C11.1231 12.7423 11.3577 12.5287 11.4769 11.8917C11.7585 10.3864 12.312 7.12472 12.4399 5.78067C12.4511 5.66291 12.437 5.51221 12.4257 5.44605C12.4144 5.3799 12.3907 5.28564 12.3047 5.21586C12.2029 5.13323 12.0457 5.1158 11.9753 5.11704C11.6556 5.12267 11.1651 5.29322 8.8046 6.27505Z" fill="black"/>
</g>
<defs>
<clipPath id="clip0_41_501">
<rect width="17" height="17" fill="white"/>
</clipPath>
</defs>
</svg>
