<svg width="17" height="17" viewBox="0 0 17 17" fill="none" xmlns="http://www.w3.org/2000/svg">
<g clip-path="url(#clip0_41_504)">
<path d="M5.04156 15.9015C5.21228 15.983 5.38578 16.0587 5.56165 16.1283C5.60778 16.1465 5.65407 16.1644 5.70052 16.1818C5.66334 16.1378 5.62814 16.0917 5.5951 16.0438C5.46727 15.8585 5.37186 15.6452 5.31938 15.4096C5.31932 15.4093 5.31926 15.409 5.3192 15.4088C5.29832 15.3148 5.28516 15.2209 5.27931 15.1278L5.1874 15.1482L5.04156 15.9015ZM5.04156 15.9015L4.94746 15.6192L4.86042 15.358" fill="black" stroke="black" stroke-width="4.18182"/>
<mask id="path-2-inside-1_41_504" fill="white">
<path d="M8.63498 0.425049C4.25646 0.425049 0.694599 3.98691 0.694599 8.36543C0.694599 9.75055 1.0569 11.1115 1.74327 12.3087L0.439161 16.2207C0.407938 16.3147 0.430548 16.4178 0.498108 16.4899C0.549788 16.5451 0.621386 16.575 0.694599 16.575C0.717478 16.575 0.740357 16.572 0.762967 16.5661L5.03381 15.4423C6.14331 16.0076 7.38605 16.3058 8.63498 16.3058C13.0135 16.3058 16.5754 12.7439 16.5754 8.36543C16.5754 3.98691 13.0135 0.425049 8.63498 0.425049ZM8.63498 15.7675C7.70151 15.7675 6.77262 15.5866 5.90779 15.2439L7.21298 14.9535C7.35806 14.9212 7.44957 14.7775 7.41727 14.6324C7.38497 14.4871 7.24151 14.3966 7.09616 14.4278L5.00744 14.8927C5.00555 14.8932 5.00421 14.8946 5.00232 14.8948C5.00071 14.8954 4.99909 14.8948 4.99748 14.8951L1.10723 15.919L2.29236 12.3636C2.31713 12.2896 2.30825 12.2083 2.26841 12.141C1.59092 11.0008 1.23293 9.69537 1.23293 8.36543C1.23293 4.28407 4.55335 0.96338 8.63498 0.96338C12.7166 0.96338 16.037 4.28407 16.037 8.36543C16.037 12.4468 12.7166 15.7675 8.63498 15.7675Z"/>
</mask>
<path d="M8.63498 0.425049C4.25646 0.425049 0.694599 3.98691 0.694599 8.36543C0.694599 9.75055 1.0569 11.1115 1.74327 12.3087L0.439161 16.2207C0.407938 16.3147 0.430548 16.4178 0.498108 16.4899C0.549788 16.5451 0.621386 16.575 0.694599 16.575C0.717478 16.575 0.740357 16.572 0.762967 16.5661L5.03381 15.4423C6.14331 16.0076 7.38605 16.3058 8.63498 16.3058C13.0135 16.3058 16.5754 12.7439 16.5754 8.36543C16.5754 3.98691 13.0135 0.425049 8.63498 0.425049ZM8.63498 15.7675C7.70151 15.7675 6.77262 15.5866 5.90779 15.2439L7.21298 14.9535C7.35806 14.9212 7.44957 14.7775 7.41727 14.6324C7.38497 14.4871 7.24151 14.3966 7.09616 14.4278L5.00744 14.8927C5.00555 14.8932 5.00421 14.8946 5.00232 14.8948C5.00071 14.8954 4.99909 14.8948 4.99748 14.8951L1.10723 15.919L2.29236 12.3636C2.31713 12.2896 2.30825 12.2083 2.26841 12.141C1.59092 11.0008 1.23293 9.69537 1.23293 8.36543C1.23293 4.28407 4.55335 0.96338 8.63498 0.96338C12.7166 0.96338 16.037 4.28407 16.037 8.36543C16.037 12.4468 12.7166 15.7675 8.63498 15.7675Z" fill="black"/>
<path d="M1.74327 12.3087L5.71046 13.6312L6.30289 11.854L5.37119 10.2288L1.74327 12.3087ZM0.439161 16.2207L-3.52803 14.8983L-3.5292 14.9018L0.439161 16.2207ZM0.498108 16.4899L-2.5541 19.3485L-2.55408 19.3485L0.498108 16.4899ZM0.762967 16.5661L1.82247 20.6115L1.82709 20.6103L0.762967 16.5661ZM5.03381 15.4423L6.93213 11.7162L5.51154 10.9925L3.96969 11.3982L5.03381 15.4423ZM5.90779 15.2439L4.99947 11.162L-8.28626 14.1183L4.36744 19.1317L5.90779 15.2439ZM7.21298 14.9535L8.1213 19.0355L8.12174 19.0354L7.21298 14.9535ZM7.41727 14.6324L3.33504 15.5396L3.33539 15.5412L7.41727 14.6324ZM7.09616 14.4278L6.21788 10.3393L6.20278 10.3425L6.18771 10.3459L7.09616 14.4278ZM5.00744 14.8927L4.09899 10.8107L3.97789 10.8377L3.8586 10.8718L5.00744 14.8927ZM5.00232 14.8948L4.41092 10.7551L4.03764 10.8084L3.67991 10.9276L5.00232 14.8948ZM4.99748 14.8951L4.30999 10.7702L4.11967 10.8019L3.93308 10.851L4.99748 14.8951ZM1.10723 15.919L-2.85999 14.5966L-5.30475 21.9309L2.17163 19.9631L1.10723 15.919ZM2.29236 12.3636L-1.67341 11.0369L-1.67486 11.0412L2.29236 12.3636ZM2.26841 12.141L5.86693 10.0107L5.86347 10.0049L2.26841 12.141ZM8.63498 -3.75677C1.94691 -3.75677 -3.48722 1.67736 -3.48722 8.36543H4.87642C4.87642 6.29647 6.56602 4.60687 8.63498 4.60687V-3.75677ZM-3.48722 8.36543C-3.48722 10.4786 -2.93478 12.5568 -1.88465 14.3886L5.37119 10.2288C5.04857 9.66611 4.87642 9.02246 4.87642 8.36543H-3.48722ZM-2.22393 10.9862L-3.52803 14.8983L4.40635 17.5432L5.71046 13.6312L-2.22393 10.9862ZM-3.5292 14.9018C-4.04368 16.4496 -3.67079 18.1562 -2.5541 19.3485L3.55032 13.6313C4.53189 14.6794 4.85955 16.1797 4.40752 17.5397L-3.5292 14.9018ZM-2.55408 19.3485C-1.69502 20.2658 -0.510488 20.7568 0.694599 20.7568V12.3932C1.75326 12.3932 2.79459 12.8244 3.55029 13.6313L-2.55408 19.3485ZM0.694599 20.7568C1.08064 20.7568 1.45945 20.7065 1.82247 20.6115L-0.296536 12.5207C0.0212672 12.4375 0.35432 12.3932 0.694599 12.3932V20.7568ZM1.82709 20.6103L6.09793 19.4865L3.96969 11.3982L-0.301152 12.5219L1.82709 20.6103ZM3.1355 19.1684C4.83402 20.0338 6.72739 20.4876 8.63498 20.4876V12.124C8.04471 12.124 7.45261 11.9814 6.93213 11.7162L3.1355 19.1684ZM8.63498 20.4876C15.323 20.4876 20.7572 15.0535 20.7572 8.36543H12.3935C12.3935 10.4344 10.7039 12.124 8.63498 12.124V20.4876ZM20.7572 8.36543C20.7572 1.67736 15.323 -3.75677 8.63498 -3.75677V4.60687C10.7039 4.60687 12.3935 6.29647 12.3935 8.36543H20.7572ZM8.63498 11.5857C8.23863 11.5857 7.83178 11.5082 7.44815 11.3562L4.36744 19.1317C5.71346 19.665 7.16439 19.9493 8.63498 19.9493V11.5857ZM6.81612 19.3259L8.1213 19.0355L6.30466 10.8715L4.99947 11.162L6.81612 19.3259ZM8.12174 19.0354C10.5182 18.5019 12.034 16.1261 11.4992 13.7236L3.33539 15.5412C2.86512 13.4289 4.19796 11.3406 6.30421 10.8716L8.12174 19.0354ZM11.4995 13.7252C10.961 11.3021 8.57528 9.83289 6.21788 10.3393L7.97444 18.5164C5.90774 18.9603 3.80891 17.672 3.33504 15.5396L11.4995 13.7252ZM6.18771 10.3459L4.09899 10.8107L5.91588 18.9746L8.0046 18.5098L6.18771 10.3459ZM3.8586 10.8718C3.54381 10.9617 3.30342 11.0707 3.16624 11.1379C3.0982 11.1712 3.04565 11.1993 3.02257 11.2117C3.01093 11.218 3.00159 11.2231 3.00113 11.2234C2.99767 11.2253 3.00557 11.2209 3.01342 11.2167C3.03599 11.2045 3.19927 11.1146 3.41746 11.0252C3.65352 10.9284 3.99151 10.815 4.41092 10.7551L5.59372 19.0346C6.01407 18.9746 6.35294 18.8609 6.58984 18.7638C6.80888 18.674 6.97296 18.5837 6.99634 18.571C7.00439 18.5667 7.01249 18.5623 7.00923 18.564C7.00898 18.5642 6.99984 18.5692 6.9884 18.5753C6.96573 18.5875 6.91359 18.6154 6.84598 18.6485C6.70964 18.7153 6.47012 18.8239 6.15627 18.9136L3.8586 10.8718ZM3.67991 10.9276C4.08174 10.7937 4.43651 10.7433 4.69713 10.7243C4.94107 10.7065 5.13269 10.7152 5.17419 10.7169C5.18733 10.7174 5.19784 10.7179 5.19831 10.718C5.20223 10.7182 5.19317 10.7177 5.18443 10.7173C5.16595 10.7165 5.11176 10.7142 5.04239 10.7134C4.90504 10.712 4.6392 10.7153 4.30999 10.7702L5.68496 19.02C5.35656 19.0748 5.09153 19.078 4.95499 19.0766C4.88602 19.0759 4.83223 19.0736 4.81416 19.0728C4.80561 19.0724 4.79676 19.072 4.80088 19.0722C4.80156 19.0722 4.81226 19.0727 4.82561 19.0733C4.86791 19.075 5.06035 19.0837 5.30509 19.0658C5.56652 19.0468 5.9221 18.9963 6.32473 18.8621L3.67991 10.9276ZM3.93308 10.851L0.042833 11.8749L2.17163 19.9631L6.06187 18.9392L3.93308 10.851ZM5.07445 17.2414L6.25959 13.686L-1.67486 11.0412L-2.85999 14.5966L5.07445 17.2414ZM6.25814 13.6903C6.67148 12.4548 6.51943 11.1129 5.86693 10.0107L-1.33011 14.2713C-1.90294 13.3037 -2.03723 12.1244 -1.67341 11.0369L6.25814 13.6903ZM5.86347 10.0049C5.57122 9.51302 5.41475 8.94584 5.41475 8.36543H-2.94889C-2.94889 10.4449 -2.38938 12.4886 -1.32665 14.2772L5.86347 10.0049ZM5.41475 8.36543C5.41475 6.59353 6.86301 5.1452 8.63498 5.1452V-3.21844C2.2437 -3.21844 -2.94889 1.97462 -2.94889 8.36543H5.41475ZM8.63498 5.1452C10.4069 5.1452 11.8552 6.59353 11.8552 8.36543H20.2188C20.2188 1.97462 15.0263 -3.21844 8.63498 -3.21844V5.1452ZM11.8552 8.36543C11.8552 10.1373 10.4069 11.5857 8.63498 11.5857V19.9493C15.0263 19.9493 20.2188 14.7562 20.2188 8.36543H11.8552Z" fill="black" mask="url(#path-2-inside-1_41_504)"/>
<path d="M14.0446 10.9131C13.6456 10.1591 12.3375 9.37741 12.1867 9.28901C11.9156 9.13488 11.6325 9.08643 11.3897 9.15386C11.2041 9.20543 11.0528 9.3216 10.95 9.49046C10.7585 9.7194 10.5202 9.988 10.4632 10.0322C10.0343 10.3223 9.70814 10.29 9.33726 9.91943L7.08136 7.66353C6.71048 7.29236 6.67761 6.96625 6.96548 6.54153C7.01279 6.48061 7.28111 6.24205 7.51004 6.0508C7.67919 5.94823 7.79536 5.79693 7.84664 5.61106C7.91408 5.36825 7.86591 5.08491 7.70979 4.81093C7.62309 4.66331 6.84166 3.35488 6.08743 2.95595C5.67518 2.7375 5.17651 2.81286 4.84728 3.14266L4.34889 3.64105C3.53799 4.45166 3.24474 5.37221 3.47708 6.3772C3.66833 7.20481 4.22338 8.08258 5.12693 8.98556L8.01494 11.8736C8.91821 12.7768 9.79598 13.3319 10.6236 13.5234C10.846 13.575 11.0645 13.6005 11.2784 13.6005C12.0306 13.6005 12.7285 13.2829 13.3597 12.6513L13.8578 12.1529C14.1879 11.8237 14.2627 11.3253 14.0446 10.9131ZM13.4572 11.7526L12.9591 12.251C12.2865 12.9239 11.5645 13.1591 10.7514 12.9715C10.0286 12.8043 9.24291 12.3 8.41558 11.4729L5.52756 8.58493C4.70051 7.75788 4.19618 6.9722 4.02901 6.24941C3.84088 5.43653 4.07661 4.71431 4.74924 4.04168L5.24763 3.5433C5.34198 3.44866 5.46636 3.39936 5.59273 3.39936C5.67064 3.39936 5.74913 3.41806 5.82223 3.4566C6.34073 3.73115 7.00769 4.73415 7.21906 5.09426C7.29499 5.22743 7.32588 5.36711 7.30038 5.45948C7.28706 5.50793 7.25844 5.54221 7.20744 5.57083L7.16466 5.6003C6.95301 5.77653 6.58524 6.0916 6.49883 6.21938C6.42119 6.33413 6.36453 6.44718 6.31749 6.55966C6.22513 6.33696 6.15344 6.09103 6.12596 5.82413C6.10981 5.66858 5.97013 5.5595 5.81486 5.5714C5.65931 5.58783 5.54598 5.72695 5.56213 5.88278C5.70748 7.2833 6.79576 8.1945 6.84223 8.23246C6.84676 8.23615 6.85214 8.23728 6.85668 8.24068L8.93634 10.3201C8.94428 10.328 8.95249 10.3337 8.96071 10.3413C8.96921 10.3526 8.97374 10.3657 8.98394 10.3759C9.02191 10.4136 9.92999 11.2942 11.3141 11.4381C11.324 11.4389 11.3339 11.4395 11.3435 11.4395C11.4869 11.4395 11.6099 11.331 11.6252 11.1856C11.6413 11.0298 11.5283 10.8907 11.3724 10.8743C11.0514 10.8411 10.7596 10.7589 10.5029 10.6581C10.5947 10.6153 10.6871 10.5649 10.7803 10.5017C10.9083 10.4153 11.2231 10.0472 11.3996 9.83556L11.4291 9.79306C11.4577 9.74206 11.492 9.71345 11.5407 9.70013C11.6325 9.6735 11.7728 9.7058 11.9028 9.77946C12.2661 9.99253 13.2685 10.6586 13.5436 11.1783C13.6448 11.369 13.6102 11.5999 13.4572 11.7526Z" fill="black"/>
</g>
<defs>
<clipPath id="clip0_41_504">
<rect width="17" height="17" fill="white"/>
</clipPath>
</defs>
</svg>
