<svg width="10" height="8" viewBox="0 0 10 8" fill="none" xmlns="http://www.w3.org/2000/svg">
<path d="M1.2375 1.00092C1.19725 0.839955 1.03414 0.742092 0.873174 0.782337C0.712208 0.822582 0.614345 0.985696 0.65459 1.14666L1.2375 1.00092ZM2.85501 6.99634L3.03559 6.75625L2.85501 6.99634ZM1.75571 4.37918L2.04786 4.30916L1.75571 4.37918ZM2.78294 6.93951L2.97434 6.70794V6.70794L2.78294 6.93951ZM9.36566 4.57577L9.65781 4.64579L9.36566 4.57577ZM8.51267 6.82495L8.30221 6.61056L8.51267 6.82495ZM8.17245 7.09327L8.33188 7.3479L8.17245 7.09327ZM9.33477 2.97888L9.54097 2.76039L9.33477 2.97888ZM9.47967 3.16261L9.74021 3.01302L9.47967 3.16261ZM6.15347 4.37848C5.98755 4.37848 5.85305 4.51298 5.85305 4.6789C5.85305 4.84483 5.98755 4.97933 6.15347 4.97933V4.37848ZM7.35518 5.58018C7.18926 5.58018 7.05475 5.71469 7.05475 5.88061C7.05475 6.04653 7.18926 6.18104 7.35518 6.18104V5.58018ZM1.36774 3.06082H7.93396V2.45997H1.36774V3.06082ZM5.78641 7.09813H5.58425V7.69898H5.78641V7.09813ZM2.04786 4.30916L1.65989 2.69037L1.07558 2.83041L1.46356 4.4492L2.04786 4.30916ZM1.65919 2.68752L1.2375 1.00092L0.65459 1.14666L1.07628 2.83326L1.65919 2.68752ZM5.58425 7.09813C4.84566 7.09813 4.31748 7.09765 3.90622 7.04986C3.50258 7.00294 3.24451 6.91338 3.03559 6.75625L2.67443 7.23643C3.00027 7.48151 3.37533 7.59305 3.83686 7.64669C4.29079 7.69945 4.85985 7.69898 5.58425 7.69898V7.09813ZM1.46356 4.4492C1.63239 5.15365 1.76456 5.70714 1.92166 6.13627C2.0814 6.57259 2.27728 6.91132 2.59155 7.17107L2.97434 6.70794C2.77284 6.5414 2.62559 6.31131 2.48589 5.92971C2.34357 5.54093 2.22 5.0274 2.04786 4.30916L1.46356 4.4492ZM3.03559 6.75625C3.01481 6.74061 2.99438 6.7245 2.97434 6.70794L2.59155 7.17107C2.61867 7.19349 2.64631 7.21528 2.67443 7.23643L3.03559 6.75625ZM5.78641 7.69898C6.41312 7.69898 6.90547 7.69933 7.30142 7.65929C7.70343 7.61864 8.03421 7.53427 8.33188 7.3479L8.01302 6.83863C7.8231 6.95754 7.59368 7.02582 7.24097 7.06149C6.88221 7.09777 6.42533 7.09813 5.78641 7.09813V7.69898ZM8.30221 6.61056C8.21434 6.69682 8.11738 6.77329 8.01302 6.83863L8.33188 7.3479C8.47307 7.2595 8.60426 7.15604 8.72313 7.03933L8.30221 6.61056ZM7.93396 3.06082C8.33152 3.06082 8.60212 3.06135 8.80348 3.08592C8.99988 3.10988 9.08041 3.15192 9.12858 3.19738L9.54097 2.76039C9.35762 2.58736 9.12751 2.52015 8.87626 2.48949C8.62997 2.45944 8.31593 2.45997 7.93396 2.45997V3.06082ZM9.65781 4.64579C9.74684 4.27435 9.82055 3.96907 9.84872 3.72256C9.87747 3.47109 9.86574 3.23165 9.74021 3.01302L9.21914 3.31221C9.25212 3.36965 9.27423 3.45775 9.25176 3.65433C9.22872 3.85587 9.16617 4.11914 9.07351 4.50575L9.65781 4.64579ZM9.12858 3.19738C9.16422 3.23101 9.19474 3.2697 9.21914 3.31221L9.74021 3.01302C9.68652 2.91951 9.61939 2.8344 9.54097 2.76039L9.12858 3.19738ZM8.95745 5.58018H7.35518V6.18104H8.95745V5.58018ZM9.34094 4.37848L6.15347 4.37848V4.97933L9.34094 4.97933V4.37848ZM9.07351 4.50575C9.06515 4.54063 9.05692 4.57497 9.0488 4.60883L9.63307 4.74898C9.64121 4.71506 9.64946 4.68066 9.65781 4.64579L9.07351 4.50575ZM9.0488 4.60883C8.92958 5.10583 8.83682 5.48538 8.73975 5.78917L9.3121 5.97205C9.41725 5.64296 9.51521 5.24032 9.63307 4.74898L9.0488 4.60883ZM8.73975 5.78917C8.60929 6.19746 8.4809 6.43514 8.30221 6.61056L8.72313 7.03933C9.00305 6.76454 9.16913 6.41948 9.3121 5.97205L8.73975 5.78917ZM8.95745 6.18104H9.02593V5.58018H8.95745V6.18104Z" fill="white"/>
</svg>
