<svg width="16" height="14" viewBox="0 0 16 14" fill="none" xmlns="http://www.w3.org/2000/svg">
<path d="M1.73871 2.7655C1.33334 3.62384 1.33334 4.84937 1.33334 7C1.33334 9.49982 1.33334 10.7497 1.96995 11.626C2.17555 11.9089 2.42441 12.1578 2.70739 12.3634C3.58361 13 4.83352 13 7.33334 13H8.66668C11.1665 13 12.4164 13 13.2926 12.3634C13.5756 12.1578 13.8245 11.9089 14.0301 11.626C14.6667 10.7497 14.6667 9.49982 14.6667 7C14.6667 4.83417 14.6667 3.60657 14.2527 2.74735M1.73871 2.7655C1.80453 2.62613 1.88103 2.49644 1.96995 2.37405C2.17555 2.09107 2.42441 1.84221 2.70739 1.63661C3.58361 1 4.83352 1 7.33334 1H8.66668C11.1665 1 12.4164 1 13.2926 1.63661C13.5756 1.84221 13.8245 2.09107 14.0301 2.37405C14.1151 2.49112 14.1888 2.61485 14.2527 2.74735M1.73871 2.7655L2.00001 3L3.28597 4.28596C5.50819 6.50818 6.6193 7.61929 8.00001 7.61929C9.38072 7.61929 10.4918 6.50818 12.7141 4.28596L14 3L14.2527 2.74735" stroke="white"/>
</svg>
