<svg width="17" height="17" viewBox="0 0 17 17" fill="none" xmlns="http://www.w3.org/2000/svg">
<path d="M13.0078 7.92802V7.52733C13.0078 7.46737 13.0078 7.43739 13.0074 7.41203C12.98 5.49572 11.4332 3.94889 9.51684 3.92145C9.49148 3.92108 9.4615 3.92108 9.40154 3.92108H9.00085M15.5122 8.42889V7.72768C15.5122 7.12939 15.5122 6.83025 15.4896 6.57809C15.2452 3.84768 13.0813 1.68378 10.3509 1.43932C10.0987 1.41675 9.79954 1.41675 9.20127 1.41675L8.50006 1.41675M6.21763 6.53332C5.89659 7.26983 6.05907 8.12779 6.62719 8.69591L8.32493 10.3936C8.89305 10.9618 9.75101 11.1243 10.4875 10.8032C11.224 10.4822 12.082 10.6446 12.6501 11.2128L13.683 12.2457C13.7331 12.2957 13.7581 12.3207 13.7783 12.3428C14.2763 12.8847 14.2763 13.7178 13.7783 14.2598C13.7581 14.2819 13.733 14.3069 13.683 14.3569L13.0552 14.9847C12.5439 15.496 11.8069 15.7106 11.101 15.5538C6.29175 14.4851 2.53579 10.7291 1.46705 5.9198C1.3102 5.21397 1.52483 4.47693 2.0361 3.96566L2.66393 3.33783C2.71397 3.28779 2.73899 3.26277 2.76103 3.24252C3.30302 2.7445 4.1361 2.7445 4.67808 3.24252C4.70012 3.26277 4.72514 3.28779 4.77518 3.33783L5.80807 4.37072C6.37619 4.93884 6.53868 5.7968 6.21763 6.53332Z" stroke="white" stroke-width="1.0625" stroke-linecap="round"/>
</svg>
